<svg xmlns="http://www.w3.org/2000/svg" viewBox="0 0 27.46 22.56"><g id="baf15bf0-05b5-473e-9afc-476365360f2d" data-name="Layer 2"><g id="ae7f3911-086b-48e1-9ecb-a5e811d7bf03" data-name="Layer 1"><rect x="0.75" y="0.75" width="25.96" height="21.06" rx="4.14" fill="none" stroke="#fff" stroke-miterlimit="10" stroke-width="1.5"/><rect x="4.65" y="3.92" width="18.15" height="14.72" rx="1.33" fill="none" stroke="#fff" stroke-miterlimit="10" stroke-width="1.5"/><path d="M13.77,8.11V3.92" fill="none" stroke="#fff" stroke-miterlimit="10" stroke-width="1.5"/><path d="M13.69,14.27v4.37" fill="none" stroke="#fff" stroke-miterlimit="10" stroke-width="1.5"/><path d="M22.81,15.59H17.69a1.16,1.16,0,0,1-.7-.36,1.27,1.27,0,0,1-.32-.85V7.62A1,1,0,0,1,16.89,7a1.06,1.06,0,0,1,.83-.39h5.09" fill="none" stroke="#fff" stroke-miterlimit="10" stroke-width="1.5"/><path d="M4.65,15.59H9.76a1.18,1.18,0,0,0,.71-.36,1.27,1.27,0,0,0,.32-.85V7.62a1,1,0,0,0-1-1H4.65" fill="none" stroke="#fff" stroke-miterlimit="10" stroke-width="1.5"/><path d="M4.65,11h6.14" fill="none" stroke="#fff" stroke-miterlimit="10" stroke-width="1.5"/><path d="M16.67,11h6.14" fill="none" stroke="#fff" stroke-miterlimit="10" stroke-width="1.5"/><path d="M10.79,8.08h5.88" fill="none" stroke="#fff" stroke-miterlimit="10" stroke-width="1.5"/><path d="M10.83,14.34h5.89" fill="none" stroke="#fff" stroke-miterlimit="10" stroke-width="1.5"/></g></g></svg>