<svg xmlns="http://www.w3.org/2000/svg" viewBox="0 0 15.36 15.37"><g id="a6163a45-04ee-456c-89f0-682845629b65" data-name="Layer 2"><g id="eca4ca8f-d26e-43cb-9da5-2f3c6a454927" data-name="Layer 1"><path d="M9,4.11V7.16a1,1,0,0,1-1,1H7.33a1,1,0,0,1-1-1v-3A3.71,3.71,0,1,0,9,4.11Z" fill="none" stroke="#fff" stroke-miterlimit="10"/><path d="M13.43,7.68A2,2,0,0,1,14.7,5.79L14,4.05A2.05,2.05,0,0,1,11.3,1.37L9.56.65A2,2,0,0,1,7.67,1.92,2.05,2.05,0,0,1,5.77.66L4,1.38a2,2,0,0,1-.45,2.23,2.05,2.05,0,0,1-2.22.45L.65,5.79A2.05,2.05,0,0,1,1.91,7.68,2.08,2.08,0,0,1,.65,9.58l.72,1.73a2.05,2.05,0,0,1,2.22.45A2,2,0,0,1,4,14l1.73.72a2.06,2.06,0,0,1,3.79,0L11.3,14A2.05,2.05,0,0,1,14,11.32l.71-1.74A2.05,2.05,0,0,1,13.43,7.68Z" fill="none" stroke="#fff" stroke-miterlimit="10"/></g></g></svg>