<svg xmlns="http://www.w3.org/2000/svg" viewBox="0 0 12.74 14.83"><g id="a76dd010-4ed4-44a8-bd0d-09e18b781f22" data-name="Layer 2"><g id="ffdff636-bacb-44a0-869a-c6063d2228f6" data-name="Layer 1"><path d="M.58,12.35,2.44.54,7.19.5A3.52,3.52,0,0,1,9.86,1.73,3.53,3.53,0,0,1,9.75,6,5,5,0,0,1,8.09,7.29a6.6,6.6,0,0,1-2.19.58l-.28,0a8.88,8.88,0,0,1-1.56,0l-.64,4.49Z" fill="none" stroke="#fff" stroke-miterlimit="10"/><path d="M10.4,2.75a3.08,3.08,0,0,1,1.2.92,3.52,3.52,0,0,1-.11,4.21A4.88,4.88,0,0,1,9.83,9.23a6.85,6.85,0,0,1-2.19.58l-.28,0a8.71,8.71,0,0,1-1.56,0l-.64,4.5-2.84,0,.29-1.84" fill="none" stroke="#fff" stroke-miterlimit="10"/></g></g></svg>