<svg xmlns="http://www.w3.org/2000/svg" viewBox="0 0 45.15 14.65"><g id="ff8a6f47-4380-43e2-827c-0784bcaac10d" data-name="Layer 2"><g id="f12a4273-4cc5-47b8-9233-baa546153eef" data-name="Layer 1"><path d="M19.57,14.4H15.89L18.19.25h3.69ZM12.79.25,9.28,10l-.42-2.1h0L7.62,1.53A1.58,1.58,0,0,0,5.87.25H.07L0,.49A13.67,13.67,0,0,1,3.85,2.11L7.05,14.4h3.84L16.75.25Zm29,14.15h3.38L42.2.25h-3a1.69,1.69,0,0,0-1.7,1.06L32,14.4h3.84l.77-2.1h4.68l.44,2.1Zm-4.06-5,1.94-5.3,1.09,5.3ZM32.33,3.66l.53-3A10.66,10.66,0,0,0,29.54,0c-1.82,0-6.17.8-6.17,4.68,0,3.66,5.1,3.71,5.1,5.63s-4.57,1.57-6.08.36l-.55,3.18a10.35,10.35,0,0,0,4.16.8c2.51,0,6.31-1.3,6.31-4.85s-5.14-4-5.14-5.62,3.58-1.39,5.16-.52Z" fill="#fff"/><path d="M8.86,7.89,7.62,1.53A1.58,1.58,0,0,0,5.87.25H.07L0,.49A14.3,14.3,0,0,1,5.47,3.24,11,11,0,0,1,8.86,7.89Z" fill="#fff"/></g></g></svg>