<svg xmlns="http://www.w3.org/2000/svg" viewBox="0 0 16.01 14.21"><g id="e8894829-3252-49e4-9f04-d7232f925b7b" data-name="Layer 2"><g id="ae262eb3-01ed-49d3-8543-26db048d0a5f" data-name="Layer 1"><rect x="1.07" width="13.53" height="14.08" rx="1.74" fill="#fff" opacity="0.6"/><path d="M14.27,14.21H1.74A1.74,1.74,0,0,1,0,12.47V3.08a1.58,1.58,0,0,1,.07-.47,1.82,1.82,0,0,1,.44-.76,1.88,1.88,0,0,1,1.23-.51H5c1.12.08,2,2.68,2.81,2.79l.57,0h5.94a1.81,1.81,0,0,1,1.23.51,1.87,1.87,0,0,1,.47.83,1.75,1.75,0,0,1,0,.4v6.56A1.74,1.74,0,0,1,14.27,14.21Z" fill="#fff"/></g></g></svg>